HIERARCHY
ROOT Hips
{
 OFFSET 0.000000 0.000000 0.000000
 CHANNELS 6 Xposition Yposition Zposition Yrotation Xrotation Zrotation
 JOINT Chest
 {
  OFFSET 0.000000 14.632000 -0.008700
  CHANNELS 3 Yrotation Xrotation Zrotation
  JOINT Chest2
  {
   OFFSET 0.000000 8.637700 0.017800
   CHANNELS 3 Yrotation Xrotation Zrotation
   JOINT Chest3
   {
    OFFSET 0.000000 8.599900 0.000000
    CHANNELS 3 Yrotation Xrotation Zrotation
    JOINT Chest4
    {
     OFFSET 0.000000 8.591100 0.000000
     CHANNELS 3 Yrotation Xrotation Zrotation
     JOINT Neck
     {
      OFFSET 0.000000 13.139200 0.000000
      CHANNELS 3 Yrotation Xrotation Zrotation
      JOINT Head
      {
       OFFSET 0.000000 8.045900 0.037600
       CHANNELS 3 Yrotation Xrotation Zrotation
       End Site
       {
        OFFSET 0.000000 15.258900 0.019900
       }
      }
     }
     JOINT RightCollar
     {
      OFFSET -2.790300 8.725300 0.000000
      CHANNELS 3 Yrotation Xrotation Zrotation
      JOINT RightShoulder
      {
       OFFSET -13.162000 0.000000 0.000000
       CHANNELS 3 Yrotation Xrotation Zrotation
       JOINT RightElbow
       {
        OFFSET 0.000000 -23.347200 0.000000
        CHANNELS 3 Yrotation Xrotation Zrotation
        JOINT RightWrist
        {
         OFFSET 0.000000 -19.377400 0.019700
         CHANNELS 3 Yrotation Xrotation Zrotation
         End Site
         {
          OFFSET 0.000000 -14.645200 0.000000
         }
        }
       }
      }
     }
     JOINT LeftCollar
     {
      OFFSET 2.790300 8.725300 0.000000
      CHANNELS 3 Yrotation Xrotation Zrotation
      JOINT LeftShoulder
      {
       OFFSET 13.162000 0.000000 0.000000
       CHANNELS 3 Yrotation Xrotation Zrotation
       JOINT LeftElbow
       {
        OFFSET 0.000000 -23.347200 0.000000
        CHANNELS 3 Yrotation Xrotation Zrotation
        JOINT LeftWrist
        {
         OFFSET 0.000000 -19.377400 0.019700
         CHANNELS 3 Yrotation Xrotation Zrotation
         End Site
         {
          OFFSET 0.000000 -14.645200 0.000000
         }
        }
       }
      }
     }
    }
   }
  }
 }
 JOINT RightHip
 {
  OFFSET -11.965000 0.043200 0.004400
  CHANNELS 3 Yrotation Xrotation Zrotation
  JOINT RightKnee
  {
   OFFSET 0.000000 -37.808000 -0.003100
   CHANNELS 3 Yrotation Xrotation Zrotation
   JOINT RightAnkle
   {
    OFFSET 0.000000 -38.963200 0.011000
    CHANNELS 3 Yrotation Xrotation Zrotation
    JOINT RightToe
    {
     OFFSET 0.000000 -8.453600 14.155200
     CHANNELS 3 Yrotation Xrotation Zrotation
     End Site
     {
      OFFSET 0.000000 -1.360900 5.784800
     }
    }
   }
  }
 }
 JOINT LeftHip
 {
  OFFSET 11.965000 0.043200 0.004400
  CHANNELS 3 Yrotation Xrotation Zrotation
  JOINT LeftKnee
  {
   OFFSET 0.000000 -37.808000 -0.003100
   CHANNELS 3 Yrotation Xrotation Zrotation
   JOINT LeftAnkle
   {
    OFFSET 0.000000 -38.963200 0.011000
    CHANNELS 3 Yrotation Xrotation Zrotation
    JOINT LeftToe
    {
     OFFSET 0.000000 -8.453600 14.155200
     CHANNELS 3 Yrotation Xrotation Zrotation
     End Site
     {
      OFFSET 0.000000 -1.360900 5.784800
     }
    }
   }
  }
 }
}
MOTION
Frames: 6
Frame Time: 0.008333
-84.558186 61.178601 4.245824 179.892836 -31.634615 -1.447899 0.915226 23.543105 3.894561 -0.030415 3.571390 0.410646 0.024283 5.737125 0.691492 0.484271 19.835351 2.524101 0.493720 11.063021 -2.679134 2.121020 -15.177379 -5.368190 3.915699 -2.011573 -2.054416 16.775944 -18.127727 -25.239739 171.421409 -80.643850 -132.295732 20.092760 -17.692286 -39.888070 -7.693489 -3.218971 -0.868691 2.529362 -3.769443 0.959164 -137.053336 -71.669875 104.454601 -9.699815 -8.403561 17.762529 6.609296 -39.600583 -7.280556 -2.790316 71.375820 -1.354833 3.436474 6.461267 5.597728 -0.089518 -6.401532 0.189730 -10.002137 -47.821085 2.228115 32.060829 68.758242 30.193830 -7.962258 33.844325 2.436317 0.909237 -22.205576 -6.520209
-84.537865 61.174960 4.250041 179.803149 -31.601770 -1.491759 0.909802 23.536230 3.894907 -0.065668 3.576804 0.395336 0.022860 5.738278 0.688538 0.513120 19.832368 2.524520 0.562644 10.997411 -2.673022 2.254440 -15.295735 -5.389885 3.918296 -2.012697 -2.057854 16.763227 -18.144835 -25.220844 171.288385 -80.623949 -132.175117 20.095981 -17.692672 -39.863627 -7.693278 -3.251711 -0.870832 2.518124 -3.769987 1.001645 -137.076810 -71.663458 104.464692 -9.702059 -8.399785 17.773194 6.551881 -39.619884 -7.167365 -2.726330 71.312693 -1.256829 3.430990 6.453602 5.556324 -0.069810 -6.354441 0.163940 -9.995500 -47.858203 2.340992 32.093387 68.780789 30.284266 -7.986157 33.870474 2.416067 0.932684 -22.376109 -6.543933
-84.517893 61.171047 4.254812 179.718930 -31.566229 -1.535019 0.792183 23.549086 3.809105 -0.003122 3.567513 0.419815 0.054595 5.734188 0.697790 0.508609 19.834413 2.516187 0.634471 10.931824 -2.665378 2.392962 -15.414002 -5.410067 3.921006 -2.015330 -2.063793 16.748369 -18.158747 -25.200648 171.163067 -80.603731 -132.063011 20.098437 -17.689850 -39.843129 -7.694981 -3.284105 -0.875973 2.506453 -3.773992 1.045996 -137.016355 -71.674594 104.472914 -9.703593 -8.443379 17.708551 6.494850 -39.651408 -7.061650 -2.662472 71.257227 -1.159570 3.443594 6.474048 5.500738 -0.060619 -6.334392 0.155125 -10.009481 -47.897001 2.461039 32.099784 68.803950 30.341244 -8.003283 33.904175 2.391832 0.955624 -22.545029 -6.568172
-84.490582 61.168124 4.258378 179.620180 -31.537227 -1.597867 0.766907 23.555325 3.808381 0.025203 3.562658 0.431072 0.053865 5.735152 0.695729 0.505095 19.836356 2.508401 0.737676 10.889284 -2.665633 2.501870 -15.552852 -5.418008 3.989511 -2.027255 -2.072136 16.664727 -18.156917 -25.178630 171.052134 -80.582323 -131.967021 20.101347 -17.682817 -39.827779 -7.700105 -3.318488 -0.884072 2.498069 -3.778587 1.090150 -137.068956 -71.657348 104.477504 -9.703727 -8.433022 17.740781 6.454518 -39.671463 -6.922755 -2.662378 71.189015 -1.107169 3.451116 6.500015 5.446313 -0.055387 -6.312959 0.146506 -10.061322 -47.927342 2.622092 32.077563 68.852530 30.396765 -8.029222 33.905550 2.308733 0.991330 -22.669554 -6.583700
-84.456376 61.164028 4.264194 179.526629 -31.498630 -1.689808 0.776181 23.543877 3.861428 0.024864 3.563257 0.429786 0.053302 5.736021 0.693656 0.502098 19.838218 2.500609 0.797662 10.814332 -2.653760 2.662522 -15.657346 -5.444027 3.959457 -2.032097 -2.084777 16.676865 -18.162843 -25.151858 170.952559 -80.564430 -131.882979 20.107180 -17.678516 -39.812700 -7.705695 -3.355187 -0.894255 2.488851 -3.782368 1.131167 -137.118553 -71.641546 104.479647 -9.708785 -8.419216 17.772324 6.388043 -39.696711 -6.745151 -2.677128 71.107012 -1.063950 3.454784 6.528023 5.388341 -0.048723 -6.286454 0.135420 -10.196087 -47.972251 2.831656 32.165948 68.890531 30.526467 -7.936918 33.931510 2.354407 0.951591 -22.813722 -6.655427
-84.441051 61.159571 4.269210 179.436153 -31.461716 -1.709473 0.749742 23.533875 3.832435 0.024693 3.563982 0.428516 0.052980 5.737072 0.691510 0.500109 19.840287 2.492731 0.858383 10.739666 -2.638678 2.823604 -15.759498 -5.467553 3.930605 -2.036699 -2.093911 16.688820 -18.166744 -25.124603 170.853247 -80.553392 -131.797558 20.114379 -17.680194 -39.796252 -7.711369 -3.394692 -0.902349 2.474938 -3.785432 1.166871 -137.110766 -71.635799 104.465727 -9.715389 -8.421036 17.772287 6.367345 -39.734439 -6.681231 -2.613552 71.064291 -0.955546 3.470952 6.547519 5.327370 -0.065473 -6.269494 0.134693 -10.232601 -48.012153 2.936593 32.233993 68.903810 30.608119 -7.900305 33.961013 2.393062 0.944036 -22.945194 -6.708477
